<?xml version="1.0" encoding="iso-8859-1"?>
<!-- Uploaded to: SVG Repo, www.svgrepo.com, Generator: SVG Repo Mixer Tools -->
<svg version="1.1" id="Layer_1" xmlns="http://www.w3.org/2000/svg" xmlns:xlink="http://www.w3.org/1999/xlink" 
	 viewBox="0 0 512 512" xml:space="preserve">
<polygon style="fill:#ECF0F1;" points="323.54,443.37 300.664,334.434 213.515,334.434 190.638,443.37 "/>
<rect x="48.477" y="285.413" style="fill:#6D6E71;" width="87.149" height="49.021"/>
<rect x="213.515" y="285.413" style="fill:#FFCD02;" width="87.149" height="49.021"/>
<rect x="158.502" y="237.481" style="fill:#6D6E71;" width="54.468" height="47.932"/>
<rect x="53.197" y="214.604" style="fill:#FFA800;" width="49.021" height="70.809"/>
<g>
	<path style="fill:#231F20;" d="M11.529,432.477h-0.635C4.877,432.477,0,437.354,0,443.37c0,6.017,4.877,10.894,10.894,10.894h0.635
		c6.017,0,10.894-4.877,10.894-10.894C22.422,437.354,17.545,432.477,11.529,432.477z"/>
	<path style="fill:#231F20;" d="M501.106,288.681h-4.357V68.63c0-0.052-0.008-0.09-0.01-0.139c-0.028-2.236-0.734-4.471-2.147-6.368
		c-3.038-4.079-8.495-5.511-13.145-3.453L181.328,191.51c-3.942,1.745-6.485,5.651-6.485,9.961v25.116h-16.34
		c-6.017,0-10.894,4.877-10.894,10.894v37.038h-34.497v-59.915c0-6.017-4.877-10.894-10.894-10.894H53.197
		c-6.017,0-10.894,4.877-10.894,10.894v59.915h-6.354c-6.017,0-10.894,4.877-10.894,10.894c0,6.017,4.877,10.894,10.894,10.894
		h1.634v38.128c0,6.017,4.877,10.894,10.894,10.894h87.149c6.017,0,10.894-4.877,10.894-10.894v-38.128h56.102v36.996
		l-20.826,99.174H52.834c-6.017,0-10.894,4.877-10.894,10.894c0,6.017,4.877,10.894,10.894,10.894h317.549
		c6.015,0,10.894-4.877,10.894-10.894c0-6.017-4.878-10.894-10.894-10.894h-37.999l-20.826-99.171v-43.873L474.962,98.154v190.527
		h-4.357c-6.015,0-10.894,4.877-10.894,10.894c0,6.017,4.878,10.894,10.894,10.894h30.502c6.015,0,10.894-4.877,10.894-10.894
		C512,293.558,507.122,288.681,501.106,288.681z M64.09,225.498h27.234v49.021H64.09V225.498z M124.732,323.541H59.37v-27.234
		h65.362V323.541z M169.396,274.519v-26.145h32.681v26.145H169.396z M222.358,345.328h23.837v32.681h-30.7L222.358,345.328z
		 M267.983,345.328h23.837l6.863,32.681h-30.7V345.328z M289.77,323.541h-65.362v-27.234h65.362V323.541z M210.92,399.796h35.276
		v32.681h-42.139L210.92,399.796z M267.983,432.477v-32.681h35.276l6.863,32.681H267.983z M295.643,274.519h-71.779v-37.038
		c0-6.017-4.877-10.894-10.894-10.894h-16.34v-18.025L446.451,97.984L295.643,274.519z"/>
</g>
</svg>